<mxfile host="app.diagrams.net" modified="2024-03-23T22:44:53.069Z" agent="Mozilla/5.0 (Macintosh; Intel Mac OS X 10_15_7) AppleWebKit/537.36 (KHTML, like Gecko) Chrome/123.0.0.0 Safari/537.36" etag="Cdp5zRY1ujD4n4QwNzL-" version="24.1.0" type="google">
  <diagram name="Page-1" id="l1MYKwUFl0Tak1yYC2Sv">
    <mxGraphModel grid="1" page="1" gridSize="10" guides="1" tooltips="1" connect="1" arrows="1" fold="1" pageScale="1" pageWidth="850" pageHeight="1100" math="0" shadow="0">
      <root>
        <mxCell id="0" />
        <mxCell id="1" parent="0" />
        <mxCell id="mIm6EUIqGohMJxI4sFbM-123" value="" style="rounded=0;whiteSpace=wrap;html=1;" vertex="1" parent="1">
          <mxGeometry x="1800" y="40" width="1620" height="930" as="geometry" />
        </mxCell>
        <mxCell id="mIm6EUIqGohMJxI4sFbM-73" value="" style="rounded=0;whiteSpace=wrap;html=1;" vertex="1" parent="1">
          <mxGeometry x="180" y="83.5" width="1186" height="770" as="geometry" />
        </mxCell>
        <mxCell id="mIm6EUIqGohMJxI4sFbM-37" value="" style="html=1;overflow=block;blockSpacing=1;whiteSpace=wrap;fontSize=13;spacing=3.8;strokeColor=#unset;fillOpacity=100;rounded=1;absoluteArcSize=1;arcSize=9;fillColor=#edf5ff;strokeWidth=NaN;lucidId=cGmmUb.Q~lMB;" vertex="1" parent="1">
          <mxGeometry x="238" y="311.5" width="461" height="452" as="geometry" />
        </mxCell>
        <mxCell id="EW_ezvBBB1lhQJqXOlaR-1" style="edgeStyle=orthogonalEdgeStyle;rounded=0;orthogonalLoop=1;jettySize=auto;html=1;exitX=1;exitY=0.25;exitDx=0;exitDy=0;entryX=0.5;entryY=0;entryDx=0;entryDy=0;" edge="1" parent="1" source="mIm6EUIqGohMJxI4sFbM-38" target="mIm6EUIqGohMJxI4sFbM-51">
          <mxGeometry relative="1" as="geometry" />
        </mxCell>
        <mxCell id="EW_ezvBBB1lhQJqXOlaR-2" value="&lt;b&gt;&lt;font style=&quot;font-size: 14px;&quot;&gt;DNS&lt;/font&gt;&lt;/b&gt;" style="edgeLabel;html=1;align=center;verticalAlign=middle;resizable=0;points=[];" connectable="0" vertex="1" parent="EW_ezvBBB1lhQJqXOlaR-1">
          <mxGeometry x="0.2039" y="1" relative="1" as="geometry">
            <mxPoint x="-83" as="offset" />
          </mxGeometry>
        </mxCell>
        <mxCell id="mIm6EUIqGohMJxI4sFbM-38" value="" style="group;dropTarget=0;pointerEvents=0;" vertex="1" parent="1">
          <mxGeometry x="395" y="253.5" width="131" height="167" as="geometry" />
        </mxCell>
        <mxCell id="mIm6EUIqGohMJxI4sFbM-39" value="" style="html=1;overflow=block;blockSpacing=1;whiteSpace=wrap;shape=image;fontSize=13;spacing=0;strokeColor=none;strokeOpacity=100;strokeWidth=0;image=https://images.lucid.app/images/dc021154-a30a-4937-96f8-0cad16ae47d5/content;lucidId=B6lmZ5Xwj5A8;" vertex="1" parent="mIm6EUIqGohMJxI4sFbM-38">
          <mxGeometry width="131" height="115" as="geometry" />
        </mxCell>
        <mxCell id="mIm6EUIqGohMJxI4sFbM-40" value="&lt;div style=&quot;display: flex; justify-content: center; text-align: center; align-items: baseline; font-size: 0; line-height: 1.25;margin-top: -2px;&quot;&gt;&lt;span&gt;&lt;span style=&quot;font-size:13.3px;color:#3a414a;font-weight: bold;&quot;&gt;Windows Server&lt;/span&gt;&lt;span style=&quot;font-size:13.3px;color:#3a414a;&quot;&gt;&#xa;colorado&#xa;AD, DNS, SSH&lt;/span&gt;&lt;/span&gt;&lt;/div&gt;" style="html=1;overflow=block;blockSpacing=1;whiteSpace=wrap;fontSize=13;spacing=3.8;verticalAlign=top;strokeOpacity=0;fillOpacity=0;rounded=1;absoluteArcSize=1;arcSize=9;fillColor=#ffffff;strokeWidth=0.8;lucidId=B6lmOZY2hq~y;" vertex="1" parent="mIm6EUIqGohMJxI4sFbM-38">
          <mxGeometry y="115" width="131" height="52" as="geometry" />
        </mxCell>
        <mxCell id="mIm6EUIqGohMJxI4sFbM-41" value="" style="group;dropTarget=0;pointerEvents=0;" vertex="1" parent="1">
          <mxGeometry x="760" y="542.5" width="131" height="161" as="geometry" />
        </mxCell>
        <mxCell id="mIm6EUIqGohMJxI4sFbM-42" value="" style="html=1;overflow=block;blockSpacing=1;whiteSpace=wrap;shape=image;fontSize=13;spacing=0;strokeColor=none;strokeOpacity=100;strokeWidth=0;image=https://images.lucid.app/images/91c4b6ea-997c-4d07-97c4-81079ea82faa/content;lucidId=H6lmYAxgV47b;" vertex="1" parent="mIm6EUIqGohMJxI4sFbM-41">
          <mxGeometry width="131" height="113" as="geometry" />
        </mxCell>
        <mxCell id="mIm6EUIqGohMJxI4sFbM-43" value="&lt;div style=&quot;display: flex; justify-content: center; text-align: center; align-items: baseline; font-size: 0; line-height: 1.25;margin-top: -2px;&quot;&gt;&lt;span&gt;&lt;span style=&quot;font-size:13.3px;color:#3a414a;font-weight: bold;&quot;&gt;Alpine&lt;/span&gt;&lt;span style=&quot;font-size:13.3px;color:#3a414a;&quot;&gt;&#xa;amazon&#xa;&lt;/span&gt;&lt;span style=&quot;font-size:11.7px;color:#3a414a;&quot;&gt;SSH&lt;/span&gt;&lt;/span&gt;&lt;/div&gt;" style="html=1;overflow=block;blockSpacing=1;whiteSpace=wrap;fontSize=13;spacing=3.8;verticalAlign=top;strokeOpacity=0;fillOpacity=0;rounded=1;absoluteArcSize=1;arcSize=9;fillColor=#ffffff;strokeWidth=0.8;lucidId=H6lm44Lu8xfH;" vertex="1" parent="mIm6EUIqGohMJxI4sFbM-41">
          <mxGeometry x="25" y="113" width="81" height="48" as="geometry" />
        </mxCell>
        <mxCell id="mIm6EUIqGohMJxI4sFbM-44" value="" style="group;dropTarget=0;pointerEvents=0;" vertex="1" parent="1">
          <mxGeometry x="515" y="542.5" width="131" height="167" as="geometry" />
        </mxCell>
        <mxCell id="mIm6EUIqGohMJxI4sFbM-45" value="" style="html=1;overflow=block;blockSpacing=1;whiteSpace=wrap;shape=image;fontSize=13;spacing=0;strokeColor=none;strokeOpacity=100;strokeWidth=0;image=https://images.lucid.app/images/dc021154-a30a-4937-96f8-0cad16ae47d5/content;lucidId=o-lmshg_1yND;" vertex="1" parent="mIm6EUIqGohMJxI4sFbM-44">
          <mxGeometry width="131" height="115" as="geometry" />
        </mxCell>
        <mxCell id="mIm6EUIqGohMJxI4sFbM-46" value="&lt;div style=&quot;display: flex; justify-content: center; text-align: center; align-items: baseline; font-size: 0; line-height: 1.25;margin-top: -2px;&quot;&gt;&lt;span&gt;&lt;span style=&quot;font-size:13.3px;color:#3a414a;font-weight: bold;&quot;&gt;Windows Vista&lt;/span&gt;&lt;span style=&quot;font-size:13.3px;color:#3a414a;&quot;&gt;&#xa;american&#xa;HLS (80)&lt;/span&gt;&lt;/span&gt;&lt;/div&gt;" style="html=1;overflow=block;blockSpacing=1;whiteSpace=wrap;fontSize=13;spacing=3.8;verticalAlign=top;strokeOpacity=0;fillOpacity=0;rounded=1;absoluteArcSize=1;arcSize=9;fillColor=#ffffff;strokeWidth=0.8;lucidId=o-lmY.aB.jDT;" vertex="1" parent="mIm6EUIqGohMJxI4sFbM-44">
          <mxGeometry y="115" width="131" height="52" as="geometry" />
        </mxCell>
        <mxCell id="mIm6EUIqGohMJxI4sFbM-47" value="" style="group;dropTarget=0;pointerEvents=0;" vertex="1" parent="1">
          <mxGeometry x="293" y="519.5" width="135" height="184" as="geometry" />
        </mxCell>
        <mxCell id="mIm6EUIqGohMJxI4sFbM-48" value="" style="html=1;overflow=block;blockSpacing=1;whiteSpace=wrap;shape=image;fontSize=13;spacing=0;strokeColor=none;strokeOpacity=100;strokeWidth=0;image=https://images.lucid.app/images/dc021154-a30a-4937-96f8-0cad16ae47d5/content;lucidId=f_lmRfd5PY4q;" vertex="1" parent="mIm6EUIqGohMJxI4sFbM-47">
          <mxGeometry x="1" width="131" height="114" as="geometry" />
        </mxCell>
        <mxCell id="mIm6EUIqGohMJxI4sFbM-49" value="&lt;div style=&quot;display: flex; justify-content: center; text-align: center; align-items: baseline; font-size: 0; line-height: 1.25;margin-top: -2px;&quot;&gt;&lt;span&gt;&lt;span style=&quot;font-size:13.3px;color:#3a414a;font-weight: bold;&quot;&gt;Windows Server&lt;/span&gt;&lt;span style=&quot;font-size:13.3px;color:#3a414a;&quot;&gt;&#xa;virgin&#xa;GIT (80), MAIL (110, 143)&lt;/span&gt;&lt;/span&gt;&lt;/div&gt;" style="html=1;overflow=block;blockSpacing=1;whiteSpace=wrap;fontSize=13;spacing=3.8;verticalAlign=top;strokeOpacity=0;fillOpacity=0;rounded=1;absoluteArcSize=1;arcSize=9;fillColor=#ffffff;strokeWidth=0.8;lucidId=f_lmMNOt8sT.;" vertex="1" parent="mIm6EUIqGohMJxI4sFbM-47">
          <mxGeometry y="114" width="135" height="70" as="geometry" />
        </mxCell>
        <mxCell id="mIm6EUIqGohMJxI4sFbM-50" value="" style="group;dropTarget=0;pointerEvents=0;" vertex="1" parent="1">
          <mxGeometry x="1133" y="325.5" width="131" height="161" as="geometry" />
        </mxCell>
        <mxCell id="mIm6EUIqGohMJxI4sFbM-51" value="" style="html=1;overflow=block;blockSpacing=1;whiteSpace=wrap;shape=image;fontSize=13;spacing=0;strokeColor=none;strokeOpacity=100;strokeWidth=0;image=https://images.lucid.app/images/91c4b6ea-997c-4d07-97c4-81079ea82faa/content;lucidId=wdmmYmO8Vi_E;" vertex="1" parent="mIm6EUIqGohMJxI4sFbM-50">
          <mxGeometry width="131" height="113" as="geometry" />
        </mxCell>
        <mxCell id="mIm6EUIqGohMJxI4sFbM-52" value="&lt;div style=&quot;display: flex; justify-content: center; text-align: center; align-items: baseline; font-size: 0; line-height: 1.25;margin-top: -2px;&quot;&gt;&lt;span&gt;&lt;span style=&quot;font-size:13px;color:#3a414a;font-weight: bold;&quot;&gt;Dragonfly BSD&lt;/span&gt;&lt;span style=&quot;font-size:13px;color:#3a414a;&quot;&gt;&#xa;pattagansett&#xa;&lt;/span&gt;&lt;span style=&quot;font-size:11.7px;color:#3a414a;&quot;&gt;YMPD (80)&lt;/span&gt;&lt;/span&gt;&lt;/div&gt;" style="html=1;overflow=block;blockSpacing=1;whiteSpace=wrap;fontSize=13;spacing=3.8;verticalAlign=top;strokeOpacity=0;fillOpacity=0;rounded=1;absoluteArcSize=1;arcSize=9;fillColor=#ffffff;strokeWidth=0.8;lucidId=wdmm5~8r8KX8;" vertex="1" parent="mIm6EUIqGohMJxI4sFbM-50">
          <mxGeometry y="113" width="131" height="48" as="geometry" />
        </mxCell>
        <mxCell id="mIm6EUIqGohMJxI4sFbM-53" value="" style="group;dropTarget=0;pointerEvents=0;" vertex="1" parent="1">
          <mxGeometry x="760" y="330.5" width="131" height="167" as="geometry" />
        </mxCell>
        <mxCell id="mIm6EUIqGohMJxI4sFbM-54" value="" style="html=1;overflow=block;blockSpacing=1;whiteSpace=wrap;shape=image;fontSize=13;spacing=0;strokeColor=none;strokeOpacity=100;strokeWidth=0;image=https://images.lucid.app/images/91c4b6ea-997c-4d07-97c4-81079ea82faa/content;lucidId=xemmIetVT-po;" vertex="1" parent="mIm6EUIqGohMJxI4sFbM-53">
          <mxGeometry width="131" height="113" as="geometry" />
        </mxCell>
        <mxCell id="mIm6EUIqGohMJxI4sFbM-55" value="&lt;div style=&quot;display: flex; justify-content: center; text-align: center; align-items: baseline; font-size: 0; line-height: 1.25;margin-top: -2px;&quot;&gt;&lt;span&gt;&lt;span style=&quot;font-size:13px;color:#3a414a;font-weight: bold;&quot;&gt;Ubuntu&lt;/span&gt;&lt;span style=&quot;font-size:13px;color:#3a414a;&quot;&gt;&#xa;nile&#xa;&lt;/span&gt;&lt;span style=&quot;font-size:11.7px;color:#3a414a;&quot;&gt;WP (80)&lt;/span&gt;&lt;/span&gt;&lt;/div&gt;" style="html=1;overflow=block;blockSpacing=1;whiteSpace=wrap;fontSize=13;spacing=3.8;verticalAlign=top;strokeOpacity=0;fillOpacity=0;rounded=1;absoluteArcSize=1;arcSize=9;fillColor=#ffffff;strokeWidth=0.8;lucidId=xemmTdn5TXJ3;" vertex="1" parent="mIm6EUIqGohMJxI4sFbM-53">
          <mxGeometry y="113" width="131" height="54" as="geometry" />
        </mxCell>
        <mxCell id="mIm6EUIqGohMJxI4sFbM-56" value="" style="group;dropTarget=0;pointerEvents=0;" vertex="1" parent="1">
          <mxGeometry x="1106" y="542.5" width="185" height="217" as="geometry" />
        </mxCell>
        <mxCell id="mIm6EUIqGohMJxI4sFbM-57" value="" style="html=1;overflow=block;blockSpacing=1;whiteSpace=wrap;shape=image;fontSize=13;spacing=0;strokeColor=none;strokeOpacity=100;strokeWidth=0;image=https://images.lucid.app/images/91c4b6ea-997c-4d07-97c4-81079ea82faa/content;lucidId=fhmmyk5zoMrJ;" vertex="1" parent="mIm6EUIqGohMJxI4sFbM-56">
          <mxGeometry x="25" width="131" height="113" as="geometry" />
        </mxCell>
        <mxCell id="mIm6EUIqGohMJxI4sFbM-58" value="&lt;div style=&quot;display: flex; justify-content: center; text-align: center; align-items: baseline; font-size: 0; line-height: 1.25;margin-top: -2px;&quot;&gt;&lt;span&gt;&lt;span style=&quot;font-size:13px;color:#3a414a;font-weight: bold;&quot;&gt;Arch&lt;/span&gt;&lt;span style=&quot;font-size:13px;color:#3a414a;&quot;&gt;&#xa;ohio&#xa;&lt;/span&gt;&lt;span style=&quot;font-size:11.7px;color:#3a414a;&quot;&gt;DNS, &#xa;DBA (adminer.stream.stream),&#xa;HTTPS (etherpad.stream.stream),&#xa;MESH (mc.stream.stream),&#xa;SSH&lt;/span&gt;&lt;/span&gt;&lt;/div&gt;" style="html=1;overflow=block;blockSpacing=1;whiteSpace=wrap;fontSize=13;spacing=3.8;verticalAlign=top;strokeOpacity=0;fillOpacity=0;rounded=1;absoluteArcSize=1;arcSize=9;fillColor=#ffffff;strokeWidth=0.8;lucidId=fhmmklP7y3FV;" vertex="1" parent="mIm6EUIqGohMJxI4sFbM-56">
          <mxGeometry y="113" width="185" height="104" as="geometry" />
        </mxCell>
        <mxCell id="mIm6EUIqGohMJxI4sFbM-59" value="" style="group;dropTarget=0;pointerEvents=0;" vertex="1" parent="1">
          <mxGeometry x="941" y="542.5" width="131" height="161" as="geometry" />
        </mxCell>
        <mxCell id="mIm6EUIqGohMJxI4sFbM-60" value="" style="html=1;overflow=block;blockSpacing=1;whiteSpace=wrap;shape=image;fontSize=13;spacing=0;strokeColor=none;strokeOpacity=100;strokeWidth=0;image=https://images.lucid.app/images/91c4b6ea-997c-4d07-97c4-81079ea82faa/content;lucidId=PjmmM5_0Nb3F;" vertex="1" parent="mIm6EUIqGohMJxI4sFbM-59">
          <mxGeometry width="131" height="113" as="geometry" />
        </mxCell>
        <mxCell id="mIm6EUIqGohMJxI4sFbM-61" value="&lt;div style=&quot;display: flex; justify-content: center; text-align: center; align-items: baseline; font-size: 0; line-height: 1.25;margin-top: -2px;&quot;&gt;&lt;span&gt;&lt;span style=&quot;font-size:13.3px;color:#3a414a;font-weight: bold;&quot;&gt;Debian&lt;/span&gt;&lt;span style=&quot;font-size:13.3px;color:#3a414a;&quot;&gt;&#xa;columbia&#xa;&lt;/span&gt;&lt;span style=&quot;font-size:11.7px;color:#3a414a;&quot;&gt;DNS, FTP&#xa;&lt;/span&gt;&lt;/span&gt;&lt;/div&gt;" style="html=1;overflow=block;blockSpacing=1;whiteSpace=wrap;fontSize=13;spacing=3.8;verticalAlign=top;strokeOpacity=0;fillOpacity=0;rounded=1;absoluteArcSize=1;arcSize=9;fillColor=#ffffff;strokeWidth=0.8;lucidId=Pjmm7CX~xBqY;" vertex="1" parent="mIm6EUIqGohMJxI4sFbM-59">
          <mxGeometry x="25" y="113" width="81" height="48" as="geometry" />
        </mxCell>
        <mxCell id="mIm6EUIqGohMJxI4sFbM-62" value="" style="group;dropTarget=0;pointerEvents=0;" vertex="1" parent="1">
          <mxGeometry x="946" y="330.5" width="131" height="165" as="geometry" />
        </mxCell>
        <mxCell id="mIm6EUIqGohMJxI4sFbM-63" value="" style="html=1;overflow=block;blockSpacing=1;whiteSpace=wrap;shape=image;fontSize=13;spacing=0;strokeColor=none;strokeOpacity=100;strokeWidth=0;image=https://images.lucid.app/images/91c4b6ea-997c-4d07-97c4-81079ea82faa/content;lucidId=Vkmm6EN2Of~O;" vertex="1" parent="mIm6EUIqGohMJxI4sFbM-62">
          <mxGeometry width="131" height="113" as="geometry" />
        </mxCell>
        <mxCell id="mIm6EUIqGohMJxI4sFbM-64" value="&lt;div style=&quot;display: flex; justify-content: center; text-align: center; align-items: baseline; font-size: 0; line-height: 1.25;margin-top: -2px;&quot;&gt;&lt;span&gt;&lt;span style=&quot;font-size:13.3px;color:#3a414a;font-weight: bold;&quot;&gt;Centos&lt;/span&gt;&lt;span style=&quot;font-size:13.3px;color:#3a414a;&quot;&gt;&#xa;ifingr&#xa;&lt;/span&gt;&lt;span style=&quot;font-size:11.7px;color:#3a414a;&quot;&gt;POS (80)&#xa;&lt;/span&gt;&lt;/span&gt;&lt;/div&gt;" style="html=1;overflow=block;blockSpacing=1;whiteSpace=wrap;fontSize=13;spacing=3.8;verticalAlign=top;strokeOpacity=0;fillOpacity=0;rounded=1;absoluteArcSize=1;arcSize=9;fillColor=#ffffff;strokeWidth=0.8;lucidId=VkmmVUXtPqTQ;" vertex="1" parent="mIm6EUIqGohMJxI4sFbM-62">
          <mxGeometry x="26" y="113" width="81" height="52" as="geometry" />
        </mxCell>
        <mxCell id="mIm6EUIqGohMJxI4sFbM-65" value="" style="html=1;jettySize=18;whiteSpace=wrap;overflow=block;blockSpacing=1;fontSize=13;strokeColor=#6db1ff;strokeOpacity=100;strokeWidth=1.5;rounded=1;arcSize=12;edgeStyle=orthogonalEdgeStyle;startArrow=none;endArrow=block;endFill=1;exitX=1.001;exitY=0.5;exitPerimeter=0;entryX=0.213;entryY=0.501;entryPerimeter=0;lucidId=jHmmpaZmotzS;" edge="1" parent="1" source="mIm6EUIqGohMJxI4sFbM-37" target="mIm6EUIqGohMJxI4sFbM-54">
          <mxGeometry width="100" height="100" relative="1" as="geometry">
            <Array as="points" />
          </mxGeometry>
        </mxCell>
        <mxCell id="mIm6EUIqGohMJxI4sFbM-66" value="&lt;font style=&quot;font-size: 14px;&quot;&gt;WP&lt;/font&gt;" style="text;html=1;resizable=0;labelBackgroundColor=default;align=center;verticalAlign=middle;fontStyle=1;fontColor=#333333;fontSize=13.3;" vertex="1" parent="mIm6EUIqGohMJxI4sFbM-65">
          <mxGeometry relative="1" as="geometry" />
        </mxCell>
        <mxCell id="mIm6EUIqGohMJxI4sFbM-67" value="AD" style="html=1;overflow=block;blockSpacing=1;whiteSpace=wrap;fontSize=16.7;fontStyle=1;spacing=3.8;strokeOpacity=0;fillOpacity=0;rounded=1;absoluteArcSize=1;arcSize=9;fillColor=#ffffff;strokeWidth=NaN;lucidId=zJmmRtTm_c3-;" vertex="1" parent="1">
          <mxGeometry x="180" y="311.5" width="180" height="45" as="geometry" />
        </mxCell>
        <mxCell id="mIm6EUIqGohMJxI4sFbM-70" value="" style="group;dropTarget=0;pointerEvents=0;" vertex="1" parent="1">
          <mxGeometry x="729" y="93.5" width="137" height="161" as="geometry" />
        </mxCell>
        <mxCell id="mIm6EUIqGohMJxI4sFbM-71" value="&lt;div style=&quot;display: flex; justify-content: center; text-align: center; align-items: baseline; font-size: 0; line-height: 1.25;margin-top: -2px;&quot;&gt;&lt;span&gt;&lt;span style=&quot;font-size:13.3px;color:#3a414a;font-weight: bold;&quot;&gt;pfsense&lt;/span&gt;&lt;span style=&quot;font-size:13.3px;color:#3a414a;&quot;&gt;&#xa;mississippi&#xa;&lt;/span&gt;&lt;span style=&quot;font-size:11.7px;color:#3a414a;font-style: italic;&quot;&gt;Router, Firewall&lt;/span&gt;&lt;/span&gt;&lt;/div&gt;" style="html=1;overflow=block;blockSpacing=1;whiteSpace=wrap;fontSize=13;spacing=3.8;verticalAlign=top;strokeOpacity=0;fillOpacity=0;rounded=1;absoluteArcSize=1;arcSize=9;fillColor=#ffffff;strokeWidth=0.8;lucidId=M_mmJrq~gnT0;" vertex="1" parent="mIm6EUIqGohMJxI4sFbM-70">
          <mxGeometry x="19" y="87" width="98" height="74" as="geometry" />
        </mxCell>
        <mxCell id="mIm6EUIqGohMJxI4sFbM-72" value="" style="html=1;overflow=block;blockSpacing=1;whiteSpace=wrap;shape=image;fontSize=13;spacing=0;strokeColor=none;strokeOpacity=100;rounded=1;absoluteArcSize=1;arcSize=9;strokeWidth=0;image=https://images.lucid.app/images/3e38f38b-11e7-4189-be11-bf9062a2b847/content;lucidId=M_mmfb_oXvrs;" vertex="1" parent="mIm6EUIqGohMJxI4sFbM-70">
          <mxGeometry width="137" height="87" as="geometry" />
        </mxCell>
        <mxCell id="mIm6EUIqGohMJxI4sFbM-74" value="" style="html=1;overflow=block;blockSpacing=1;whiteSpace=wrap;fontSize=13;spacing=3.8;strokeColor=#unset;fillOpacity=100;rounded=1;absoluteArcSize=1;arcSize=9;fillColor=#e3fae3;strokeWidth=NaN;lucidId=FEmm6y7hGq_v;" vertex="1" parent="1">
          <mxGeometry x="2805" y="325" width="238" height="338" as="geometry" />
        </mxCell>
        <mxCell id="mIm6EUIqGohMJxI4sFbM-75" value="" style="html=1;overflow=block;blockSpacing=1;whiteSpace=wrap;fontSize=13;spacing=3.8;strokeColor=#3a414a;strokeOpacity=100;fillOpacity=100;rounded=1;absoluteArcSize=1;arcSize=9;fillColor=#edf5ff;strokeWidth=0.8;lucidId=VzmmEvP9SEmL;" vertex="1" parent="1">
          <mxGeometry x="1900" y="334" width="517" height="525" as="geometry" />
        </mxCell>
        <mxCell id="mIm6EUIqGohMJxI4sFbM-76" value="" style="group;dropTarget=0;pointerEvents=0;" vertex="1" parent="1">
          <mxGeometry x="2093" y="253" width="131" height="185" as="geometry" />
        </mxCell>
        <mxCell id="mIm6EUIqGohMJxI4sFbM-77" value="" style="html=1;overflow=block;blockSpacing=1;whiteSpace=wrap;shape=image;fontSize=13;spacing=0;strokeColor=none;strokeOpacity=100;strokeWidth=0;image=https://images.lucid.app/images/dc021154-a30a-4937-96f8-0cad16ae47d5/content;lucidId=4hmm.jIkN1VH;" vertex="1" parent="mIm6EUIqGohMJxI4sFbM-76">
          <mxGeometry width="131" height="115" as="geometry" />
        </mxCell>
        <mxCell id="mIm6EUIqGohMJxI4sFbM-78" value="&lt;div style=&quot;display: flex; justify-content: center; text-align: center; align-items: baseline; font-size: 0; line-height: 1.25;margin-top: -2px;&quot;&gt;&lt;span&gt;&lt;span style=&quot;font-size:13.3px;color:#3a414a;font-weight: bold;&quot;&gt;Windows Server&lt;/span&gt;&lt;span style=&quot;font-size:13.3px;color:#3a414a;&quot;&gt;&#xa;pasta&#xa;&lt;/span&gt;&lt;span style=&quot;font-size:13.3px;color:#3a414a;font-style: italic;&quot;&gt;AD, DNS, SSH&lt;/span&gt;&lt;/span&gt;&lt;/div&gt;" style="html=1;overflow=block;blockSpacing=1;whiteSpace=wrap;fontSize=13;spacing=3.8;verticalAlign=top;strokeOpacity=0;fillOpacity=0;rounded=1;absoluteArcSize=1;arcSize=9;fillColor=#ffffff;strokeWidth=0.8;lucidId=4hmm0pjtilUN;" vertex="1" parent="mIm6EUIqGohMJxI4sFbM-76">
          <mxGeometry y="114" width="131" height="71" as="geometry" />
        </mxCell>
        <mxCell id="mIm6EUIqGohMJxI4sFbM-79" value="" style="group;dropTarget=0;pointerEvents=0;" vertex="1" parent="1">
          <mxGeometry x="2247" y="455" width="131" height="186" as="geometry" />
        </mxCell>
        <mxCell id="mIm6EUIqGohMJxI4sFbM-80" value="" style="html=1;overflow=block;blockSpacing=1;whiteSpace=wrap;shape=image;fontSize=13;spacing=0;strokeColor=none;strokeOpacity=100;strokeWidth=0;image=https://images.lucid.app/images/dc021154-a30a-4937-96f8-0cad16ae47d5/content;lucidId=rimml9hjy9NN;" vertex="1" parent="mIm6EUIqGohMJxI4sFbM-79">
          <mxGeometry width="131" height="115" as="geometry" />
        </mxCell>
        <mxCell id="mIm6EUIqGohMJxI4sFbM-81" value="&lt;div style=&quot;display: flex; justify-content: center; text-align: center; align-items: baseline; font-size: 0; line-height: 1.25;margin-top: -2px;&quot;&gt;&lt;span&gt;&lt;span style=&quot;font-size:13.3px;color:#3a414a;font-weight: bold;&quot;&gt;Windows Server&lt;/span&gt;&lt;span style=&quot;font-size:13.3px;color:#3a414a;&quot;&gt;&#xa;carbonara&#xa;&lt;/span&gt;&lt;span style=&quot;font-size:13.3px;color:#3a414a;font-style: italic;&quot;&gt;SMB&lt;/span&gt;&lt;/span&gt;&lt;/div&gt;" style="html=1;overflow=block;blockSpacing=1;whiteSpace=wrap;fontSize=13;spacing=3.8;verticalAlign=top;strokeOpacity=0;fillOpacity=0;rounded=1;absoluteArcSize=1;arcSize=9;fillColor=#ffffff;strokeWidth=0.8;lucidId=rimm3CN9BfQX;" vertex="1" parent="mIm6EUIqGohMJxI4sFbM-79">
          <mxGeometry y="115" width="131" height="71" as="geometry" />
        </mxCell>
        <mxCell id="mIm6EUIqGohMJxI4sFbM-82" value="" style="group;dropTarget=0;pointerEvents=0;" vertex="1" parent="1">
          <mxGeometry x="1939" y="455" width="131" height="186" as="geometry" />
        </mxCell>
        <mxCell id="mIm6EUIqGohMJxI4sFbM-83" value="" style="html=1;overflow=block;blockSpacing=1;whiteSpace=wrap;shape=image;fontSize=13;spacing=0;strokeColor=none;strokeOpacity=100;strokeWidth=0;image=https://images.lucid.app/images/dc021154-a30a-4937-96f8-0cad16ae47d5/content;lucidId=Oimm8zsHiZA8;" vertex="1" parent="mIm6EUIqGohMJxI4sFbM-82">
          <mxGeometry width="131" height="115" as="geometry" />
        </mxCell>
        <mxCell id="mIm6EUIqGohMJxI4sFbM-84" value="&lt;div style=&quot;display: flex; justify-content: center; text-align: center; align-items: baseline; font-size: 0; line-height: 1.25;margin-top: -2px;&quot;&gt;&lt;span&gt;&lt;span style=&quot;font-size:13.3px;color:#3a414a;font-weight: bold;&quot;&gt;Windows IoT&lt;/span&gt;&lt;span style=&quot;font-size:13.3px;color:#3a414a;&quot;&gt;&#xa;fettuccine&#xa;Signage (80)&lt;/span&gt;&lt;/span&gt;&lt;/div&gt;" style="html=1;overflow=block;blockSpacing=1;whiteSpace=wrap;fontSize=13;spacing=3.8;verticalAlign=top;strokeOpacity=0;fillOpacity=0;rounded=1;absoluteArcSize=1;arcSize=9;fillColor=#ffffff;strokeWidth=0.8;lucidId=OimmpCLIm5mn;" vertex="1" parent="mIm6EUIqGohMJxI4sFbM-82">
          <mxGeometry y="115" width="131" height="71" as="geometry" />
        </mxCell>
        <mxCell id="mIm6EUIqGohMJxI4sFbM-85" value="" style="group;dropTarget=0;pointerEvents=0;" vertex="1" parent="1">
          <mxGeometry x="2093" y="455" width="131" height="186" as="geometry" />
        </mxCell>
        <mxCell id="mIm6EUIqGohMJxI4sFbM-86" value="" style="html=1;overflow=block;blockSpacing=1;whiteSpace=wrap;shape=image;fontSize=13;spacing=0;strokeColor=none;strokeOpacity=100;strokeWidth=0;image=https://images.lucid.app/images/dc021154-a30a-4937-96f8-0cad16ae47d5/content;lucidId=ajmmTZeZ3Z05;" vertex="1" parent="mIm6EUIqGohMJxI4sFbM-85">
          <mxGeometry width="131" height="115" as="geometry" />
        </mxCell>
        <mxCell id="mIm6EUIqGohMJxI4sFbM-87" value="&lt;div style=&quot;display: flex; justify-content: center; text-align: center; align-items: baseline; font-size: 0; line-height: 1.25;margin-top: -2px;&quot;&gt;&lt;span&gt;&lt;span style=&quot;font-size:13.3px;color:#3a414a;font-weight: bold;&quot;&gt;Windows Server&lt;/span&gt;&lt;span style=&quot;font-size:13.3px;color:#3a414a;&quot;&gt;&#xa;gnocchi&#xa;Chatbot (80)&lt;/span&gt;&lt;/span&gt;&lt;/div&gt;" style="html=1;overflow=block;blockSpacing=1;whiteSpace=wrap;fontSize=13;spacing=3.8;verticalAlign=top;strokeOpacity=0;fillOpacity=0;rounded=1;absoluteArcSize=1;arcSize=9;fillColor=#ffffff;strokeWidth=0.8;lucidId=ajmmjqrdMK2m;" vertex="1" parent="mIm6EUIqGohMJxI4sFbM-85">
          <mxGeometry y="115" width="131" height="71" as="geometry" />
        </mxCell>
        <mxCell id="mIm6EUIqGohMJxI4sFbM-88" value="" style="group;dropTarget=0;pointerEvents=0;" vertex="1" parent="1">
          <mxGeometry x="2560" y="48" width="137" height="160" as="geometry" />
        </mxCell>
        <mxCell id="mIm6EUIqGohMJxI4sFbM-89" value="&lt;div style=&quot;display: flex; justify-content: center; text-align: center; align-items: baseline; font-size: 0; line-height: 1.25;margin-top: -2px;&quot;&gt;&lt;span&gt;&lt;span style=&quot;font-size:13.3px;color:#3a414a;&quot;&gt;conchigilie&#xa;&lt;/span&gt;&lt;span style=&quot;font-size:11.7px;color:#3a414a;font-style: italic;&quot;&gt;Router, Firewall&lt;/span&gt;&lt;/span&gt;&lt;/div&gt;" style="html=1;overflow=block;blockSpacing=1;whiteSpace=wrap;fontSize=13;spacing=3.8;verticalAlign=top;strokeOpacity=0;fillOpacity=0;rounded=1;absoluteArcSize=1;arcSize=9;fillColor=#ffffff;strokeWidth=0.8;lucidId=0-lmYd_jYCM-;" vertex="1" parent="mIm6EUIqGohMJxI4sFbM-88">
          <mxGeometry x="19" y="105" width="98" height="55" as="geometry" />
        </mxCell>
        <mxCell id="mIm6EUIqGohMJxI4sFbM-90" value="" style="html=1;overflow=block;blockSpacing=1;whiteSpace=wrap;shape=image;fontSize=13;spacing=0;strokeColor=none;strokeOpacity=100;rounded=1;absoluteArcSize=1;arcSize=9;strokeWidth=0;image=https://images.lucid.app/images/3e38f38b-11e7-4189-be11-bf9062a2b847/content;imageAspect=0;lucidId=Famm_JxELyMH;" vertex="1" parent="mIm6EUIqGohMJxI4sFbM-88">
          <mxGeometry width="137" height="137" as="geometry" />
        </mxCell>
        <mxCell id="mIm6EUIqGohMJxI4sFbM-91" value="" style="group;dropTarget=0;pointerEvents=0;" vertex="1" parent="1">
          <mxGeometry x="3122" y="511" width="131" height="186" as="geometry" />
        </mxCell>
        <mxCell id="mIm6EUIqGohMJxI4sFbM-92" value="" style="html=1;overflow=block;blockSpacing=1;whiteSpace=wrap;shape=image;fontSize=13;spacing=0;strokeColor=none;strokeOpacity=100;strokeWidth=0;image=https://images.lucid.app/images/91c4b6ea-997c-4d07-97c4-81079ea82faa/content;lucidId=TjmmEqBnks2C;" vertex="1" parent="mIm6EUIqGohMJxI4sFbM-91">
          <mxGeometry width="131" height="113" as="geometry" />
        </mxCell>
        <mxCell id="mIm6EUIqGohMJxI4sFbM-93" value="&lt;div style=&quot;display: flex; justify-content: center; text-align: center; align-items: baseline; font-size: 0; line-height: 1.25;margin-top: -2px;&quot;&gt;&lt;span&gt;&lt;span style=&quot;font-size:13px;color:#3a414a;font-weight: bold;&quot;&gt;BSD/PDP 11&#xa;&lt;/span&gt;&lt;span style=&quot;font-size:13px;color:#3a414a;&quot;&gt;strozza&#xa;FTP, HTTP, &#xa;Racnher (8000)&lt;/span&gt;&lt;/span&gt;&lt;/div&gt;" style="html=1;overflow=block;blockSpacing=1;whiteSpace=wrap;fontSize=13;spacing=3.8;verticalAlign=top;strokeOpacity=0;fillOpacity=0;rounded=1;absoluteArcSize=1;arcSize=9;fillColor=#ffffff;strokeWidth=0.8;lucidId=TjmmFGgj1atb;" vertex="1" parent="mIm6EUIqGohMJxI4sFbM-91">
          <mxGeometry y="113" width="131" height="73" as="geometry" />
        </mxCell>
        <mxCell id="mIm6EUIqGohMJxI4sFbM-94" value="" style="group;dropTarget=0;pointerEvents=0;" vertex="1" parent="1">
          <mxGeometry x="1939" y="641" width="131" height="187" as="geometry" />
        </mxCell>
        <mxCell id="mIm6EUIqGohMJxI4sFbM-95" value="" style="html=1;overflow=block;blockSpacing=1;whiteSpace=wrap;shape=image;fontSize=13;spacing=0;strokeColor=none;strokeOpacity=100;strokeWidth=0;image=https://images.lucid.app/images/91c4b6ea-997c-4d07-97c4-81079ea82faa/content;lucidId=1kmmHoLuVnQW;" vertex="1" parent="mIm6EUIqGohMJxI4sFbM-94">
          <mxGeometry width="131" height="113" as="geometry" />
        </mxCell>
        <mxCell id="mIm6EUIqGohMJxI4sFbM-96" value="&lt;div style=&quot;display: flex; justify-content: center; text-align: center; align-items: baseline; font-size: 0; line-height: 1.25;margin-top: -2px;&quot;&gt;&lt;span&gt;&lt;span style=&quot;font-size:13px;color:#3a414a;font-weight: bold;&quot;&gt;Debian&#xa;&lt;/span&gt;&lt;span style=&quot;font-size:13px;color:#3a414a;&quot;&gt;macaroni&#xa;HTTP, SQL&lt;/span&gt;&lt;/span&gt;&lt;/div&gt;" style="html=1;overflow=block;blockSpacing=1;whiteSpace=wrap;fontSize=13;spacing=3.8;verticalAlign=top;strokeOpacity=0;fillOpacity=0;rounded=1;absoluteArcSize=1;arcSize=9;fillColor=#ffffff;strokeWidth=0.8;lucidId=1kmmGLqD~skj;" vertex="1" parent="mIm6EUIqGohMJxI4sFbM-94">
          <mxGeometry y="114" width="131" height="73" as="geometry" />
        </mxCell>
        <mxCell id="mIm6EUIqGohMJxI4sFbM-97" value="" style="group;dropTarget=0;pointerEvents=0;" vertex="1" parent="1">
          <mxGeometry x="2093" y="641" width="131" height="219" as="geometry" />
        </mxCell>
        <mxCell id="mIm6EUIqGohMJxI4sFbM-98" value="" style="html=1;overflow=block;blockSpacing=1;whiteSpace=wrap;shape=image;fontSize=13;spacing=0;strokeColor=none;strokeOpacity=100;strokeWidth=0;image=https://images.lucid.app/images/91c4b6ea-997c-4d07-97c4-81079ea82faa/content;lucidId=lmmm4rtlcNRn;" vertex="1" parent="mIm6EUIqGohMJxI4sFbM-97">
          <mxGeometry width="131" height="113" as="geometry" />
        </mxCell>
        <mxCell id="mIm6EUIqGohMJxI4sFbM-99" value="&lt;div style=&quot;display: flex; justify-content: center; text-align: center; align-items: baseline; font-size: 0; line-height: 1.25;margin-top: -2px;&quot;&gt;&lt;span&gt;&lt;span style=&quot;font-size:13px;color:#3a414a;font-weight: bold;&quot;&gt;Arch&#xa;&lt;/span&gt;&lt;span style=&quot;font-size:13px;color:#3a414a;&quot;&gt;orzo&#xa;Pterodactyl (80), Nginx (7443), Docker (443)&lt;/span&gt;&lt;/span&gt;&lt;/div&gt;" style="html=1;overflow=block;blockSpacing=1;whiteSpace=wrap;fontSize=13;spacing=3.8;verticalAlign=top;strokeOpacity=0;fillOpacity=0;rounded=1;absoluteArcSize=1;arcSize=9;fillColor=#ffffff;strokeWidth=0.8;lucidId=lmmmP9j3_p.v;" vertex="1" parent="mIm6EUIqGohMJxI4sFbM-97">
          <mxGeometry y="114" width="131" height="105" as="geometry" />
        </mxCell>
        <mxCell id="mIm6EUIqGohMJxI4sFbM-100" value="" style="group;dropTarget=0;pointerEvents=0;" vertex="1" parent="1">
          <mxGeometry x="2858" y="253" width="131" height="186" as="geometry" />
        </mxCell>
        <mxCell id="mIm6EUIqGohMJxI4sFbM-101" value="" style="html=1;overflow=block;blockSpacing=1;whiteSpace=wrap;shape=image;fontSize=13;spacing=0;strokeColor=none;strokeOpacity=100;strokeWidth=0;image=https://images.lucid.app/images/91c4b6ea-997c-4d07-97c4-81079ea82faa/content;lucidId=Mnmmhtv9uU3S;" vertex="1" parent="mIm6EUIqGohMJxI4sFbM-100">
          <mxGeometry width="131" height="113" as="geometry" />
        </mxCell>
        <mxCell id="mIm6EUIqGohMJxI4sFbM-102" value="&lt;div style=&quot;display: flex; justify-content: center; text-align: center; align-items: baseline; font-size: 0; line-height: 1.25;margin-top: -2px;&quot;&gt;&lt;span&gt;&lt;span style=&quot;font-size:13px;color:#3a414a;font-weight: bold;&quot;&gt;Fedora&#xa;&lt;/span&gt;&lt;span style=&quot;font-size:13px;color:#3a414a;&quot;&gt;bucatini&#xa;DokuWiki (80), LDAP&lt;/span&gt;&lt;/span&gt;&lt;/div&gt;" style="html=1;overflow=block;blockSpacing=1;whiteSpace=wrap;fontSize=13;spacing=3.8;verticalAlign=top;strokeOpacity=0;fillOpacity=0;rounded=1;absoluteArcSize=1;arcSize=9;fillColor=#ffffff;strokeWidth=0.8;lucidId=Mnmmqy.OnkSs;" vertex="1" parent="mIm6EUIqGohMJxI4sFbM-100">
          <mxGeometry y="113" width="131" height="73" as="geometry" />
        </mxCell>
        <mxCell id="mIm6EUIqGohMJxI4sFbM-103" value="" style="group;dropTarget=0;pointerEvents=0;" vertex="1" parent="1">
          <mxGeometry x="3122" y="253" width="131" height="202" as="geometry" />
        </mxCell>
        <mxCell id="mIm6EUIqGohMJxI4sFbM-104" value="" style="html=1;overflow=block;blockSpacing=1;whiteSpace=wrap;shape=image;fontSize=13;spacing=0;strokeColor=none;strokeOpacity=100;strokeWidth=0;image=https://images.lucid.app/images/91c4b6ea-997c-4d07-97c4-81079ea82faa/content;lucidId=yommM6ZAO.6~;" vertex="1" parent="mIm6EUIqGohMJxI4sFbM-103">
          <mxGeometry width="131" height="113" as="geometry" />
        </mxCell>
        <mxCell id="mIm6EUIqGohMJxI4sFbM-105" value="&lt;div style=&quot;display: flex; justify-content: center; text-align: center; align-items: baseline; font-size: 0; line-height: 1.25;margin-top: -2px;&quot;&gt;&lt;span&gt;&lt;span style=&quot;font-size:13px;color:#3a414a;&quot;&gt;&lt;span style=&quot;font-size:13px;color:#3a414a;&quot;&gt;Tiny Core&#xa;ravioli&lt;/span&gt;&lt;span style=&quot;font-size:13px;color:#3a414a;&quot;&gt;&#xa;Kubernetes (80), PDP11 (8000)&lt;/span&gt;&lt;/span&gt;&lt;/span&gt;&lt;/div&gt;" style="html=1;overflow=block;blockSpacing=1;whiteSpace=wrap;fontSize=13;spacing=3.8;verticalAlign=top;strokeOpacity=0;fillOpacity=0;rounded=1;absoluteArcSize=1;arcSize=9;fillColor=#ffffff;strokeWidth=0.8;lucidId=yommvNbZ7Qm5;" vertex="1" parent="mIm6EUIqGohMJxI4sFbM-103">
          <mxGeometry y="113" width="131" height="89" as="geometry" />
        </mxCell>
        <mxCell id="mIm6EUIqGohMJxI4sFbM-106" value="" style="group;dropTarget=0;pointerEvents=0;" vertex="1" parent="1">
          <mxGeometry x="2595" y="610" width="131" height="218" as="geometry" />
        </mxCell>
        <mxCell id="mIm6EUIqGohMJxI4sFbM-107" value="" style="html=1;overflow=block;blockSpacing=1;whiteSpace=wrap;shape=image;fontSize=13;spacing=0;strokeColor=none;strokeOpacity=100;strokeWidth=0;image=https://images.lucid.app/images/91c4b6ea-997c-4d07-97c4-81079ea82faa/content;lucidId=npmmpTzt3ZZU;" vertex="1" parent="mIm6EUIqGohMJxI4sFbM-106">
          <mxGeometry width="131" height="113" as="geometry" />
        </mxCell>
        <mxCell id="mIm6EUIqGohMJxI4sFbM-108" value="&lt;div style=&quot;display: flex; justify-content: center; text-align: center; align-items: baseline; font-size: 0; line-height: 1.25;margin-top: -2px;&quot;&gt;&lt;span&gt;&lt;span style=&quot;font-size:13px;color:#3a414a;&quot;&gt;&lt;span style=&quot;font-size:13px;color:#3a414a;&quot;&gt;Ubuntu&#xa;spaghetti&lt;/span&gt;&lt;span style=&quot;font-size:13px;color:#3a414a;&quot;&gt;&#xa;Moodle (80), Events (8080), Semaphore (3000), SMB&lt;/span&gt;&lt;/span&gt;&lt;/span&gt;&lt;/div&gt;" style="html=1;overflow=block;blockSpacing=1;whiteSpace=wrap;fontSize=13;spacing=3.8;verticalAlign=top;strokeOpacity=0;fillOpacity=0;rounded=1;absoluteArcSize=1;arcSize=9;fillColor=#ffffff;strokeWidth=0.8;lucidId=npmmqNiRqx2Q;" vertex="1" parent="mIm6EUIqGohMJxI4sFbM-106">
          <mxGeometry y="113" width="131" height="105" as="geometry" />
        </mxCell>
        <mxCell id="mIm6EUIqGohMJxI4sFbM-109" value="" style="group;dropTarget=0;pointerEvents=0;" vertex="1" parent="1">
          <mxGeometry x="2595" y="367" width="131" height="203" as="geometry" />
        </mxCell>
        <mxCell id="mIm6EUIqGohMJxI4sFbM-110" value="" style="html=1;overflow=block;blockSpacing=1;whiteSpace=wrap;shape=image;fontSize=13;spacing=0;strokeColor=none;strokeOpacity=100;strokeWidth=0;image=https://images.lucid.app/images/91c4b6ea-997c-4d07-97c4-81079ea82faa/content;lucidId=TqmmIhcT6Bav;" vertex="1" parent="mIm6EUIqGohMJxI4sFbM-109">
          <mxGeometry width="131" height="113" as="geometry" />
        </mxCell>
        <mxCell id="mIm6EUIqGohMJxI4sFbM-111" value="&lt;div style=&quot;display: flex; justify-content: center; text-align: center; align-items: baseline; font-size: 0; line-height: 1.25;margin-top: -2px;&quot;&gt;&lt;span&gt;&lt;span style=&quot;font-size:13px;color:#3a414a;font-weight: bold;&quot;&gt;Slackware&#xa;&lt;/span&gt;&lt;span style=&quot;font-size:13px;color:#3a414a;&quot;&gt;mozzare&#xa;Apache (80), Samba (139, 445), xinetd (666)&lt;/span&gt;&lt;/span&gt;&lt;/div&gt;" style="html=1;overflow=block;blockSpacing=1;whiteSpace=wrap;fontSize=13;spacing=3.8;verticalAlign=top;strokeOpacity=0;fillOpacity=0;rounded=1;absoluteArcSize=1;arcSize=9;fillColor=#ffffff;strokeWidth=0.8;lucidId=Tqmm.F9P8plr;" vertex="1" parent="mIm6EUIqGohMJxI4sFbM-109">
          <mxGeometry y="114" width="131" height="89" as="geometry" />
        </mxCell>
        <mxCell id="mIm6EUIqGohMJxI4sFbM-112" value="" style="group;dropTarget=0;pointerEvents=0;" vertex="1" parent="1">
          <mxGeometry x="2858" y="446" width="131" height="202" as="geometry" />
        </mxCell>
        <mxCell id="mIm6EUIqGohMJxI4sFbM-113" value="" style="html=1;overflow=block;blockSpacing=1;whiteSpace=wrap;shape=image;fontSize=13;spacing=0;strokeColor=none;strokeOpacity=100;strokeWidth=0;image=https://images.lucid.app/images/91c4b6ea-997c-4d07-97c4-81079ea82faa/content;lucidId=Grmm5fmIQiY4;" vertex="1" parent="mIm6EUIqGohMJxI4sFbM-112">
          <mxGeometry width="131" height="113" as="geometry" />
        </mxCell>
        <mxCell id="mIm6EUIqGohMJxI4sFbM-114" value="&lt;div style=&quot;display: flex; justify-content: center; text-align: center; align-items: baseline; font-size: 0; line-height: 1.25;margin-top: -2px;&quot;&gt;&lt;span&gt;&lt;span style=&quot;font-size:13px;color:#3a414a;font-weight: bold;&quot;&gt;Ubuntu&#xa;&lt;/span&gt;&lt;span style=&quot;font-size:13px;color:#3a414a;&quot;&gt;dabigtortellini&#xa;Dovecot (80), SMTP, IMAP, POP3&lt;/span&gt;&lt;/span&gt;&lt;/div&gt;" style="html=1;overflow=block;blockSpacing=1;whiteSpace=wrap;fontSize=13;spacing=3.8;verticalAlign=top;strokeOpacity=0;fillOpacity=0;rounded=1;absoluteArcSize=1;arcSize=9;fillColor=#ffffff;strokeWidth=0.8;lucidId=Grmm0cZjFTYw;" vertex="1" parent="mIm6EUIqGohMJxI4sFbM-112">
          <mxGeometry y="113" width="131" height="89" as="geometry" />
        </mxCell>
        <mxCell id="mIm6EUIqGohMJxI4sFbM-115" value="" style="html=1;jettySize=18;whiteSpace=wrap;overflow=block;blockSpacing=1;fontSize=13;strokeColor=#3a414a;strokeOpacity=100;strokeWidth=0.8;rounded=1;arcSize=12;edgeStyle=orthogonalEdgeStyle;startArrow=none;endArrow=block;endFill=1;exitX=0.5;exitY=0.091;exitPerimeter=0;entryX=0.5;entryY=1;entryPerimeter=0;lucidId=9Hmm_E-XsCgw;" edge="1" parent="1" source="mIm6EUIqGohMJxI4sFbM-92" target="mIm6EUIqGohMJxI4sFbM-105">
          <mxGeometry width="100" height="100" relative="1" as="geometry">
            <Array as="points" />
          </mxGeometry>
        </mxCell>
        <mxCell id="mIm6EUIqGohMJxI4sFbM-116" value="POD" style="text;html=1;resizable=0;labelBackgroundColor=default;align=center;verticalAlign=middle;fontStyle=1;fontColor=#333333;fontSize=13.3;" vertex="1" parent="mIm6EUIqGohMJxI4sFbM-115">
          <mxGeometry x="-0.15750493936690513" relative="1" as="geometry" />
        </mxCell>
        <mxCell id="mIm6EUIqGohMJxI4sFbM-117" value="AD" style="html=1;overflow=block;blockSpacing=1;whiteSpace=wrap;fontSize=16.7;fontStyle=1;spacing=3.8;strokeOpacity=0;fillOpacity=0;rounded=1;absoluteArcSize=1;arcSize=9;fillColor=#ffffff;strokeWidth=NaN;lucidId=lJmmfxJMff3M;" vertex="1" parent="1">
          <mxGeometry x="1900" y="342" width="57" height="41" as="geometry" />
        </mxCell>
        <mxCell id="mIm6EUIqGohMJxI4sFbM-118" value="LDAP" style="html=1;overflow=block;blockSpacing=1;whiteSpace=wrap;fontSize=16.7;fontStyle=1;spacing=3.8;strokeOpacity=0;fillOpacity=0;rounded=1;absoluteArcSize=1;arcSize=9;fillColor=#ffffff;strokeWidth=NaN;lucidId=CJmmLl3j2x4I;" vertex="1" parent="1">
          <mxGeometry x="2805" y="333" width="78" height="41" as="geometry" />
        </mxCell>
        <mxCell id="mIm6EUIqGohMJxI4sFbM-119" value="" style="html=1;jettySize=18;whiteSpace=wrap;fontSize=13;strokeColor=#6db1ff;strokeOpacity=100;strokeWidth=1.5;rounded=1;arcSize=12;edgeStyle=orthogonalEdgeStyle;startArrow=none;endArrow=block;endFill=1;exitX=0.728;exitY=0.494;exitPerimeter=0;entryX=0.213;entryY=0.5;entryPerimeter=0;lucidId=X2mmPy.XT6ht;" edge="1" parent="1" source="mIm6EUIqGohMJxI4sFbM-77" target="mIm6EUIqGohMJxI4sFbM-110">
          <mxGeometry width="100" height="100" relative="1" as="geometry">
            <Array as="points">
              <mxPoint x="2470" y="310" />
              <mxPoint x="2470" y="424" />
            </Array>
          </mxGeometry>
        </mxCell>
        <mxCell id="mIm6EUIqGohMJxI4sFbM-120" value="Moodle, SMB" style="text;html=1;resizable=0;labelBackgroundColor=default;align=center;verticalAlign=middle;fontStyle=1;fontColor=#333333;fontSize=13.3;" vertex="1" parent="mIm6EUIqGohMJxI4sFbM-119">
          <mxGeometry x="0.7022902712189629" relative="1" as="geometry" />
        </mxCell>
        <mxCell id="mIm6EUIqGohMJxI4sFbM-121" value="" style="html=1;jettySize=18;whiteSpace=wrap;fontSize=13;strokeColor=#6db1ff;strokeOpacity=100;strokeWidth=1.5;rounded=1;arcSize=12;edgeStyle=orthogonalEdgeStyle;startArrow=none;endArrow=block;endFill=1;exitX=0.728;exitY=0.494;exitPerimeter=0;entryX=0.213;entryY=0.5;entryPerimeter=0;lucidId=_2mmXHCjX8qF;" edge="1" parent="1" source="mIm6EUIqGohMJxI4sFbM-77" target="mIm6EUIqGohMJxI4sFbM-107">
          <mxGeometry width="100" height="100" relative="1" as="geometry">
            <Array as="points">
              <mxPoint x="2470" y="310" />
              <mxPoint x="2470" y="667" />
            </Array>
          </mxGeometry>
        </mxCell>
        <mxCell id="mIm6EUIqGohMJxI4sFbM-122" value="SAMBA" style="text;html=1;resizable=0;labelBackgroundColor=default;align=center;verticalAlign=middle;fontStyle=1;fontColor=#333333;fontSize=13.3;" vertex="1" parent="mIm6EUIqGohMJxI4sFbM-121">
          <mxGeometry x="0.7931667573562473" relative="1" as="geometry" />
        </mxCell>
      </root>
    </mxGraphModel>
  </diagram>
</mxfile>
